<?xml version="1.0" encoding="utf-8"?>
<!-- Generator: Adobe Illustrator 26.0.3, SVG Export Plug-In . SVG Version: 6.00 Build 0)  -->
<svg version="1.1" id="Layer_1" xmlns="http://www.w3.org/2000/svg" xmlns:xlink="http://www.w3.org/1999/xlink" x="0px" y="0px"
	 viewBox="0 0 150 150" style="enable-background:new 0 0 150 150;" xml:space="preserve">
<style type="text/css">
	.st0{fill:#36557C;}
</style>
<g>
	<path class="st0" d="M75,128.71c-2.4,0.01-4.69-0.96-6.37-2.67c-3.49-3.57-3.48-9.29,0.03-12.84c3.47-3.5,9.13-3.53,12.63-0.05
		c0.03,0.03,0.05,0.05,0.08,0.08c3.52,3.59,3.47,9.35-0.11,12.88C79.58,127.75,77.34,128.68,75,128.71z"/>
	<path class="st0" d="M44.15,124.19c-0.09,0-0.18-0.01-0.27-0.03c-0.71-0.03-1.35-0.43-1.68-1.06c-0.67-1.55,1.23-4.31,2.05-5.47
		l0.2-0.29c2.92-4.38,8.83-11.75,13.41-17.1c4.71-5.51,8.76-9.75,11.2-12.29l0.43-0.45l0.73-0.77l0.12-0.12
		c0.81-0.97,1.72-1.85,2.71-2.63c0.55-0.41,1.22-0.63,1.9-0.63c0.7,0.01,1.38,0.23,1.95,0.63c0.77,0.64,1.48,1.34,2.15,2.08
		l0.03,0.03l1.39,1.41l0.38,0.4c2.46,2.57,6.57,6.86,11.24,12.34c4.58,5.36,10.51,12.73,13.41,17.1c2.7,3.96,2.59,4.96,2.21,5.7
		c-0.31,0.63-0.94,1.06-1.64,1.13c-0.06,0-0.12,0-0.18,0c-0.62,0-1.46-0.47-4.32-3.04c-2.01-1.85-5-4.72-7.88-7.51l0,0
		c-1.75-1.68-3.4-3.27-4.79-4.59c-2.1-2.21-4.48-4.13-7.09-5.71c-1.34-0.64-2.79-1.02-4.28-1.13c-0.48-0.06-0.96-0.09-1.45-0.09
		c-0.22,0-0.41,0-0.6,0h-0.52c-0.7,0-1.43,0-2.57,0.07c-1.48,0.14-2.93,0.52-4.28,1.13c-2.63,1.53-5.01,3.46-7.06,5.7
		c-1.31,1.24-2.85,2.73-4.49,4.31l0,0c-3.01,2.92-6.13,5.92-8.2,7.79C45.58,123.7,44.75,124.19,44.15,124.19z"/>
	<path class="st0" d="M122.52,107.54c-1.78-0.32-3.45-1.09-4.86-2.22l-0.29-0.2c-4.15-2.79-11.51-8.49-17.52-13.56
		c-5.62-4.74-9.96-8.76-13.12-11.75l-0.71-0.67l-0.18-0.17c-1-0.83-1.91-1.75-2.71-2.76c-0.86-1.16-0.86-2.74,0-3.89
		c0.65-0.76,1.35-1.48,2.1-2.15l0.02-0.02l1.49-1.44l0.38-0.36c2.63-2.49,7.04-6.66,12.74-11.38c5.49-4.63,13.03-10.61,17.52-13.56
		c3.26-2.19,4.43-2.44,5.03-2.44c0.28,0,0.56,0.07,0.81,0.21c0.65,0.32,1.08,0.94,1.15,1.66c0.07,0.63-0.1,1.25-3.1,4.54
		c-1.33,1.4-3.15,3.25-5.08,5.22c-2.63,2.67-5.33,5.43-7.39,7.62c-2.26,2.11-4.22,4.51-5.84,7.14c-0.66,1.35-1.06,2.82-1.17,4.33
		c-0.08,0.68-0.11,1.37-0.08,2.06c0,0.19,0,0.36,0,0.53c0,0.71,0,1.44,0.07,2.6c0.15,1.5,0.54,2.96,1.17,4.33
		c1.57,2.66,3.54,5.07,5.84,7.14c1.48,1.54,3.3,3.39,5.21,5.35c2.69,2.74,5.47,5.58,7.26,7.49c2.99,3.21,3.25,3.87,3.1,4.54
		C124.17,106.92,123.55,107.54,122.52,107.54z"/>
	<path class="st0" d="M28.93,107.54c-1.03,0-1.64-0.62-1.81-1.84c-0.07-0.63,0.11-1.25,3.1-4.54c1.79-1.92,4.57-4.75,7.26-7.49l0,0
		c1.92-1.95,3.72-3.79,5.2-5.34c2.26-2.11,4.22-4.51,5.84-7.14c0.66-1.36,1.05-2.82,1.15-4.33c0.08-0.69,0.11-1.38,0.08-2.07
		c0-0.18,0-0.35,0-0.53c0-0.71,0-1.44-0.07-2.6c-0.14-1.5-0.52-2.96-1.14-4.34c-1.57-2.66-3.54-5.07-5.84-7.14
		c-1.48-1.54-3.28-3.37-5.19-5.32l0,0c-2.7-2.75-5.49-5.59-7.27-7.51c-3-3.21-3.26-3.88-3.11-4.55c0.12-0.7,0.55-1.31,1.17-1.66
		c0.25-0.14,0.53-0.21,0.81-0.21c0.58,0,1.77,0.25,5.03,2.44c4.13,2.78,11.5,8.47,17.52,13.56c4.87,4.1,8.84,7.79,11.47,10.22
		c0.63,0.58,1.17,1.09,1.66,1.53l0.79,0.74l0.13,0.12c0.99,0.82,1.89,1.74,2.69,2.75c0.86,1.16,0.86,2.74,0,3.89
		c-0.66,0.77-1.36,1.5-2.12,2.17l-0.03,0.03l-1.46,1.41l-0.35,0.33c-2.63,2.49-7.05,6.66-12.77,11.43
		c-5.49,4.63-13.04,10.62-17.52,13.56l-0.26,0.18C32.43,106.44,30.74,107.21,28.93,107.54z"/>
	<path class="st0" d="M119.9,84.84c-2.4,0.01-4.69-0.96-6.37-2.67c-3.53-3.58-3.48-9.35,0.11-12.88c1.67-1.65,3.92-2.58,6.26-2.61
		c2.4-0.01,4.69,0.96,6.37,2.67c3.49,3.56,3.49,9.26,0,12.82C124.6,83.89,122.3,84.85,119.9,84.84z"/>
	<path class="st0" d="M30.08,84.84c-2.39,0-4.68-0.96-6.36-2.67c-3.53-3.58-3.48-9.35,0.11-12.88c1.67-1.65,3.92-2.58,6.26-2.61
		c2.4-0.01,4.69,0.96,6.37,2.67c3.53,3.58,3.48,9.35-0.11,12.88c-1.67,1.65-3.92,2.58-6.26,2.61H30.08z"/>
	<path class="st0" d="M74.95,66.68c-0.69,0-1.35-0.22-1.9-0.63c-0.75-0.63-1.46-1.31-2.12-2.04l0,0l-1.44-1.46l-0.38-0.4
		c-2.46-2.57-6.57-6.86-11.25-12.34c-4.59-5.37-10.52-12.74-13.42-17.12l-0.18-0.26c-0.82-1.2-2.75-4-2.07-5.55
		c0.33-0.62,0.97-1.01,1.68-1.02c0.06,0,0.12,0,0.18,0c0.62,0,1.46,0.47,4.32,3.04c2.01,1.85,5.02,4.74,7.92,7.53
		c1.75,1.68,3.39,3.25,4.78,4.58c2.09,2.2,4.46,4.11,7.06,5.68c1.34,0.64,2.79,1.02,4.28,1.13c0.48,0.06,0.96,0.09,1.44,0.09
		c0.21,0,0.41,0,0.6,0h0.53c0.7,0,1.43,0,2.57-0.07c1.48-0.14,2.92-0.53,4.27-1.14c2.63-1.53,5.01-3.45,7.07-5.69
		c1.32-1.26,2.88-2.76,4.54-4.36c3-2.9,6.1-5.89,8.17-7.75c2.79-2.57,3.64-3.06,4.22-3.06c0.09,0,0.18,0.01,0.27,0.03
		c0.69,0.12,1.29,0.53,1.64,1.13c0.38,0.74,0.49,1.75-2.21,5.7c-2.9,4.38-8.83,11.74-13.41,17.1c-4.67,5.46-8.72,9.7-11.15,12.23
		l-0.48,0.51l-0.84,0.88c-0.82,0.97-1.73,1.85-2.73,2.63C76.35,66.45,75.66,66.68,74.95,66.68z"/>
	<path class="st0" d="M75,39.44c-2.4,0.01-4.69-0.96-6.37-2.67c-3.53-3.58-3.48-9.35,0.11-12.88c1.67-1.65,3.92-2.58,6.26-2.61
		c2.4-0.01,4.69,0.96,6.37,2.67c1.69,1.71,2.64,4.02,2.63,6.42c0.08,4.93-3.85,9-8.78,9.08c-0.07,0-0.14,0-0.2,0L75,39.44z"/>
</g>
</svg>
