<?xml version="1.0" encoding="UTF-8" standalone="no"?>
<!-- Created with Inkscape (http://www.inkscape.org/) -->
<svg xmlns:dc="http://purl.org/dc/elements/1.1/" xmlns:cc="http://creativecommons.org/ns#" xmlns:rdf="http://www.w3.org/1999/02/22-rdf-syntax-ns#" xmlns:svg="http://www.w3.org/2000/svg" xmlns="http://www.w3.org/2000/svg" xmlns:xlink="http://www.w3.org/1999/xlink" version="1.0" width="207.0625" height="196.125" id="svg2">
  <metadata id="metadata371">
    <rdf:RDF>
      <cc:Work rdf:about="">
        <dc:format>image/svg+xml</dc:format>
        <dc:type rdf:resource="http://purl.org/dc/dcmitype/StillImage"/>
        <dc:title/>
      </cc:Work>
    </rdf:RDF>
  </metadata>
  <defs id="defs4">
    <linearGradient id="linearGradient2795">
      <stop id="stop2797" style="stop-color:#b8b8b8;stop-opacity:0.49803922" offset="0"/>
      <stop id="stop2799" style="stop-color:#7f7f7f;stop-opacity:0" offset="1"/>
    </linearGradient>
    <linearGradient id="linearGradient2787">
      <stop id="stop2789" style="stop-color:#7f7f7f;stop-opacity:0.5" offset="0"/>
      <stop id="stop2791" style="stop-color:#7f7f7f;stop-opacity:0" offset="1"/>
    </linearGradient>
    <linearGradient id="linearGradient3676">
      <stop id="stop3678" style="stop-color:#b2b2b2;stop-opacity:0.5" offset="0"/>
      <stop id="stop3680" style="stop-color:#b3b3b3;stop-opacity:0" offset="1"/>
    </linearGradient>
    <linearGradient id="linearGradient3236">
      <stop id="stop3244" style="stop-color:#f4f4f4;stop-opacity:1" offset="0"/>
      <stop id="stop3240" style="stop-color:#ffffff;stop-opacity:1" offset="1"/>
    </linearGradient>
    <linearGradient id="linearGradient4671">
      <stop id="stop4673" style="stop-color:#ffd43b;stop-opacity:1" offset="0"/>
      <stop id="stop4675" style="stop-color:#ffe873;stop-opacity:1" offset="1"/>
    </linearGradient>
    <linearGradient id="linearGradient4689">
      <stop id="stop4691" style="stop-color:#5a9fd4;stop-opacity:1" offset="0"/>
      <stop id="stop4693" style="stop-color:#306998;stop-opacity:1" offset="1"/>
    </linearGradient>
    <linearGradient x1="224.23996" y1="144.75717" x2="-65.308502" y2="144.75717" id="linearGradient2987" xlink:href="#linearGradient4671" gradientUnits="userSpaceOnUse" gradientTransform="translate(100.2702,99.61116)"/>
    <linearGradient x1="172.94208" y1="77.475983" x2="26.670298" y2="76.313133" id="linearGradient2990" xlink:href="#linearGradient4689" gradientUnits="userSpaceOnUse" gradientTransform="translate(100.2702,99.61116)"/>
    <linearGradient x1="172.94208" y1="77.475983" x2="26.670298" y2="76.313133" id="linearGradient2587" xlink:href="#linearGradient4689" gradientUnits="userSpaceOnUse" gradientTransform="translate(100.2702,99.61116)"/>
    <linearGradient x1="224.23996" y1="144.75717" x2="-65.308502" y2="144.75717" id="linearGradient2589" xlink:href="#linearGradient4671" gradientUnits="userSpaceOnUse" gradientTransform="translate(100.2702,99.61116)"/>
    <linearGradient x1="172.94208" y1="77.475983" x2="26.670298" y2="76.313133" id="linearGradient2248" xlink:href="#linearGradient4689" gradientUnits="userSpaceOnUse" gradientTransform="translate(100.2702,99.61116)"/>
    <linearGradient x1="224.23996" y1="144.75717" x2="-65.308502" y2="144.75717" id="linearGradient2250" xlink:href="#linearGradient4671" gradientUnits="userSpaceOnUse" gradientTransform="translate(100.2702,99.61116)"/>
    <linearGradient x1="224.23996" y1="144.75717" x2="-65.308502" y2="144.75717" id="linearGradient2255" xlink:href="#linearGradient4671" gradientUnits="userSpaceOnUse" gradientTransform="matrix(0.562541,0,0,0.567972,-11.5974,-7.60954)"/>
    <linearGradient x1="172.94208" y1="76.176224" x2="26.670298" y2="76.313133" id="linearGradient2258" xlink:href="#linearGradient4689" gradientUnits="userSpaceOnUse" gradientTransform="matrix(0.562541,0,0,0.567972,-11.5974,-7.60954)"/>
    <radialGradient cx="61.518883" cy="132.28575" r="29.036913" fx="61.518883" fy="132.28575" id="radialGradient2801" xlink:href="#linearGradient2795" gradientUnits="userSpaceOnUse" gradientTransform="matrix(1,0,0,0.177966,0,108.7434)"/>
    <linearGradient x1="150.96111" y1="192.35176" x2="112.03144" y2="137.27299" id="linearGradient1475" xlink:href="#linearGradient4671" gradientUnits="userSpaceOnUse" gradientTransform="matrix(0.562541,0,0,0.567972,33.698482,31.68078)"/>
    <linearGradient x1="26.648937" y1="20.603781" x2="135.66525" y2="114.39767" id="linearGradient1478" xlink:href="#linearGradient4689" gradientUnits="userSpaceOnUse" gradientTransform="matrix(0.562541,0,0,0.567972,33.698482,31.68078)"/>
    <radialGradient cx="61.518883" cy="132.28575" r="29.036913" fx="61.518883" fy="132.28575" id="radialGradient1480" xlink:href="#linearGradient2795" gradientUnits="userSpaceOnUse" gradientTransform="matrix(2.382716e-8,-0.296405,1.43676,4.683673e-7,-128.544,150.5202)"/>
    <linearGradient x1="26.648937" y1="20.603781" x2="135.66525" y2="114.39767" id="linearGradient3210" xlink:href="#linearGradient4689" gradientUnits="userSpaceOnUse" gradientTransform="matrix(0.562541,0,0,0.567972,33.698482,31.68078)"/>
    <linearGradient x1="150.96111" y1="192.35176" x2="112.03144" y2="137.27299" id="linearGradient3212" xlink:href="#linearGradient4671" gradientUnits="userSpaceOnUse" gradientTransform="matrix(0.562541,0,0,0.567972,33.698482,31.68078)"/>
  </defs>
  <path d="m 110.46717,132.28575 a 48.948284,8.6066771 0 1 1 -97.896571,0 48.948284,8.6066771 0 1 1 97.896571,0 z" transform="matrix(0.73406,0,0,0.809524,59.347811,63.995447)" id="path1894" style="opacity:0.44382019;fill:url(#radialGradient1480);fill-opacity:1;fill-rule:nonzero;stroke:none"/>
  <path d="M 107.59375,0 C 74.969982,0 48.572933,9.5931171 28.5,28.6875 9.501691,46.686854 0,68.782099 0,95.0625 c 0,27.95719 8.7638506,51.23143 26.34375,69.8125 19.38518,20.80534 46.246706,31.25 80.71875,31.25 34.77298,0 62.02099,-10.44466 81.75,-31.25 5.28096,-5.47462 9.77236,-11.3677 13.5,-17.65625 l -40.1875,0 c -10.40946,19.29518 -28.49867,29.02426 -54.28125,29.1875 C 84.80506,176.71421 67.51939,167.60046 56,149.15625 46.973685,134.68149 42.499998,116.6549 42.5,95.0625 c 0,-47.085734 21.49392,-71.671499 64.5625,-73.65625 23.29663,0.855493 40.53553,9.111781 51.625,24.75 2.11114,2.904448 3.95875,5.998052 5.59375,9.25 l 42.78125,0 C 202.36242,45.663814 195.74812,36.768402 187.21875,28.6875 166.75895,9.593117 140.21761,0 107.59375,0 z" id="path2196" style="fill:#646464;fill-opacity:1"/>
  <g transform="matrix(1.1081583,0,0,1.1081583,-5.641244,-12.285301)" id="g3206">
    <path d="m 103.60839,43.38407 c -4.583656,0.0213 -8.960942,0.412218 -12.812503,1.09375 -11.346216,2.004504 -13.406249,6.200102 -13.40625,13.9375 l 0,10.21875 26.812503,0 0,3.40625 -26.812503,0 -10.0625,0 c -7.792459,0 -14.615759,4.683717 -16.75,13.59375 -2.46182,10.212966 -2.571015,16.58602 0,27.25 1.905928,7.93785 6.457543,13.59375 14.25,13.59375 l 9.21875,0 0,-12.25 c 0,-8.8499 7.657144,-16.656248 16.75,-16.65625 l 26.781253,0 c 7.45495,0 13.40625,-6.138164 13.40625,-13.625 l 0,-25.53125 c 0,-7.266339 -6.12998,-12.724778 -13.40625,-13.9375 -4.60599,-0.766725 -9.3851,-1.115048 -13.96875,-1.09375 z m -14.500003,8.21875 c 2.769547,0 5.03125,2.298646 5.03125,5.125 -2e-6,2.816336 -2.261703,5.09375 -5.03125,5.09375 -2.779476,-1e-6 -5.03125,-2.277415 -5.03125,-5.09375 -10e-7,-2.826353 2.251774,-5.125 5.03125,-5.125 z" id="path1948" style="fill:url(#linearGradient3210);fill-opacity:1"/>
    <path d="m 134.32714,72.04032 0,11.90625 c 0,9.230755 -7.8259,17 -16.75,17 l -26.781253,0 c -7.335833,0 -13.406249,6.27848 -13.40625,13.625 l 0,25.53125 c 0,7.26634 6.318588,11.54032 13.40625,13.625 8.487331,2.49561 16.626233,2.94663 26.781253,0 6.75015,-1.95439 13.40625,-5.88761 13.40625,-13.625 l 0,-10.21875 -26.78125,0 0,-3.40625 26.78125,0 13.40625,0 c 7.79246,0 10.69625,-5.43541 13.40624,-13.59375 2.79933,-8.39889 2.68022,-16.475776 0,-27.25 -1.92578,-7.757441 -5.60387,-13.59375 -13.40624,-13.59375 l -10.0625,0 z m -15.0625,64.65625 c 2.77948,0 5.03125,2.27742 5.03125,5.09375 -1e-5,2.82635 -2.25178,5.125 -5.03125,5.125 -2.76955,0 -5.03125,-2.29865 -5.03125,-5.125 0,-2.81633 2.26169,-5.09375 5.03125,-5.09375 z" id="path1950" style="fill:url(#linearGradient3212);fill-opacity:1"/>
  </g>
</svg>